<svg xmlns="http://www.w3.org/2000/svg" width="58" height="58" viewBox="0 0 58 58">
  <g id="Group_32620" data-name="Group 32620" transform="translate(-1516 -9808)">
    <path id="Path_31735" data-name="Path 31735" d="M32.372,9.05a3.866,3.866,0,0,0-2.718-2.725c-2.416-.663-12.081-.674-12.081-.674s-9.664-.011-12.081.623A3.949,3.949,0,0,0,2.766,9.018a40.879,40.879,0,0,0-.643,7.427,40.628,40.628,0,0,0,.626,7.427,3.866,3.866,0,0,0,2.72,2.723c2.441.663,12.08.674,12.08.674s9.665.011,12.081-.622a3.88,3.88,0,0,0,2.726-2.72A40.7,40.7,0,0,0,33,16.5,38.7,38.7,0,0,0,32.372,9.05ZM14.48,21.087l.008-9.257,8.033,4.636Z" transform="translate(1527.877 9820.349)" fill="#fff"/>
    <g id="Ellipse_27" data-name="Ellipse 27" transform="translate(1516 9808)" fill="none" stroke="#fff" stroke-width="1">
      <circle cx="29" cy="29" r="29" stroke="none"/>
      <circle cx="29" cy="29" r="28.5" fill="none"/>
    </g>
  </g>
</svg>
