<svg xmlns="http://www.w3.org/2000/svg" width="58" height="58" viewBox="0 0 58 58">
  <g id="Group_32623" data-name="Group 32623" transform="translate(-1293 -9808)">
    <g id="Group_32614" data-name="Group 32614" transform="translate(1315 9824)">
      <g id="Group_32615" data-name="Group 32615" transform="translate(0 0)">
        <path id="Path_31734" data-name="Path 31734" d="M3.8,14.241H2.655c-.657,0-1.315.007-1.972,0-.509-.008-.671-.161-.675-.667q-.015-1.91,0-3.821c0-.5.177-.657.682-.659.914,0,1.828,0,2.743,0H3.8c0-.213,0-.4,0-.578.021-1.108-.018-2.222.078-3.324A5.539,5.539,0,0,1,9.29.032C10.531-.02,11.776.011,13.018.014c.409,0,.584.178.586.586q.01,1.833,0,3.667c0,.416-.174.583-.617.594-.832.021-1.664.02-2.5.033-.967.014-1.346.377-1.364,1.344-.017.912,0,1.825,0,2.77.13.006.238.015.346.015,1.068,0,2.137,0,3.2,0,.646,0,.807.161.808.8q0,1.833,0,3.667c0,.567-.142.711-.711.713-1.089,0-2.178,0-3.267,0H9.125v.413q0,4.822,0,9.645c0,.853-.108.962-.95.962q-1.787,0-3.575,0c-.651,0-.8-.15-.8-.795q0-4.884,0-9.768v-.42" transform="translate(0 -0.002)" fill="#fff"/>
      </g>
    </g>
    <g id="Ellipse_24" data-name="Ellipse 24" transform="translate(1293 9808)" fill="none" stroke="#fff" stroke-width="1">
      <circle cx="29" cy="29" r="29" stroke="none"/>
      <circle cx="29" cy="29" r="28.5" fill="none"/>
    </g>
  </g>
</svg>
