<svg xmlns="http://www.w3.org/2000/svg" width="58" height="58" viewBox="0 0 58 58">
  <g id="Group_32621" data-name="Group 32621" transform="translate(-1443 -9808)">
    <g id="Icon_LinkedIn" data-name="Icon / LinkedIn" transform="translate(1458.838 9823.784)">
      <path id="Vector" d="M12.472,9.83a2.815,2.815,0,0,1-2.95,2.916,2.88,2.88,0,0,1,.088-5.76A2.808,2.808,0,0,1,12.472,9.83Zm7.111,5.219h-4.77V31.243h5.039v-.378q0-1.078,0-2.157c0-1.918,0-3.838.007-5.755A5.54,5.54,0,0,1,20,21.559a3.227,3.227,0,0,1,3.607-2.469,2.414,2.414,0,0,1,2.075,1.8,7.421,7.421,0,0,1,.274,1.966c.022,1.982.019,3.964.016,5.946q0,1.049,0,2.1v.343h5.055v-.388q0-1.283,0-2.565,0-3.205,0-6.411a11.424,11.424,0,0,0-.338-2.852,5.666,5.666,0,0,0-2.274-3.368,5.214,5.214,0,0,0-2.8-1.014l-.356-.018a6.313,6.313,0,0,0-1.573.044A6.177,6.177,0,0,0,20,16.789c-.112.134-.221.27-.384.473l-.037.046ZM7.1,31.248h5.015V15.06H7.1Z" transform="translate(-5.534 -5.769)" fill="#fff" fill-rule="evenodd"/>
    </g>
    <g id="Ellipse_26" data-name="Ellipse 26" transform="translate(1443 9808)" fill="none" stroke="#fff" stroke-width="1">
      <circle cx="29" cy="29" r="29" stroke="none"/>
      <circle cx="29" cy="29" r="28.5" fill="none"/>
    </g>
  </g>
</svg>
